<svg xmlns="http://www.w3.org/2000/svg" viewBox="0 0 32 32"><path fill="#00abbc" d="M25.31 17.443a1.6 1.6 0 0 0-1.131.469 1.61 1.61 0 0 0-.469 1.131v.37c-.65.7-4.21 2-10.26 2s-9.61-1.27-10.25-2v-3.36c3.68 1.48 9.34 1.55 10.25 1.55 1.21 0 2.42-.05 3.58-.15a1.6 1.6 0 1 0-.271-3.19c-1.08.09-2.19.14-3.31.14-6 0-9.61-1.27-10.25-2v-3.09c3.68 1.48 9.34 1.55 10.25 1.55a1.6 1.6 0 0 0 0-3.2c-5.57 0-9-1.07-10-1.8 1-.72 4.48-1.8 10-1.8.64 0 1.27 0 1.88.05a1.58 1.58 0 0 0 1.67-1.53 1.6 1.6 0 0 0-1.52-1.67c-.66 0-1.34-.05-2-.05-1.4 0-13.48.14-13.48 5v20.28c0 4.86 12.08 5 13.45 5s13.46-.14 13.46-5v-7.14c-.011-.417-.184-.814-.483-1.106s-.7-.455-1.118-.454zm-11.86 10.5c-6 0-9.6-1.27-10.25-2v-2.94c3.68 1.48 9.34 1.55 10.25 1.55s6.55-.04 10.26-1.55v3c-.65.67-4.22 1.94-10.26 1.94M30.63 8.832v-.76l1.15-1a.68.68 0 0 0 .22-.79l-.66-1.6a.77.77 0 0 0-.66-.42l-1.54.08-.54-.53.08-1.54a.66.66 0 0 0-.42-.66l-1.64-.61a.6.6 0 0 0-.26 0 .68.68 0 0 0-.5.22l-1 1.14h-.76L23 1.122a.7.7 0 0 0-.47-.22.56.56 0 0 0-.25 0l-1.6.66a.69.69 0 0 0-.42.66l.08 1.54-.53.53-1.54-.08a.71.71 0 0 0-.66.42L17 6.282a.68.68 0 0 0 .169.76l1.14 1v.76l-1.14 1a.67.67 0 0 0-.169.76l.66 1.59a.69.69 0 0 0 .66.42l1.54-.08.53.54-.08 1.54a.695.695 0 0 0 .42.66l1.59.66a.698.698 0 0 0 .77-.17l1-1.15h.76l1 1.15a.7.7 0 0 0 .51.22.7.7 0 0 0 .25-.05l1.59-.66a.67.67 0 0 0 .42-.66l-.08-1.54.54-.54 1.57.08a.67.67 0 0 0 .63-.42l.72-1.53a.68.68 0 0 0-.17-.76zm-6.18 2.6a3 3 0 0 1-.586-5.942 2.997 2.997 0 0 1 3.584 2.943 3.004 3.004 0 0 1-3 3z"></path></svg>